<svg width="173" height="47" fill="none" xmlns="http://www.w3.org/2000/svg"><path d="M3.724 31.709a3.724 3.724 0 110-7.448 10.759 10.759 0 0010.634-5.793c3.476-4.758 7.862-10.675 22.8-10.675a3.724 3.724 0 110 7.448c-11.173 0-13.78 3.558-16.8 7.654A17.999 17.999 0 013.724 31.71zM3.724 46.729a3.724 3.724 0 110-7.448 17.752 17.752 0 0016.551-7.779 19.24 19.24 0 0116.551-8.69 3.724 3.724 0 110 7.449 12.082 12.082 0 00-10.717 5.917 24.827 24.827 0 01-22.385 10.55z" fill="#00AD6E"/><path d="M59.211 38.867a.87.87 0 01.952-.91.869.869 0 01.952.91v6.703a.868.868 0 01-.952.91.87.87 0 01-.952-.91v-6.703zM62.729 41.019c0-.497 0-.828.745-.828.744 0 .744.331.744.828v.248a2.4 2.4 0 012.028-1.076 1.987 1.987 0 012.11 2.235v3.227a.703.703 0 01-.827.828.703.703 0 01-.828-.828v-3.062a1.035 1.035 0 00-1.076-1.158 1.283 1.283 0 00-1.282 1.324v2.73a.705.705 0 01-.828.828.703.703 0 01-.828-.827l.042-4.47zM69.721 41.019a.744.744 0 01.787-.828.744.744 0 01.786.828v.248a2.4 2.4 0 012.027-1.076 1.737 1.737 0 011.614 1.076 2.193 2.193 0 011.945-1.076 1.862 1.862 0 012.11 2.028v3.434a.745.745 0 01-.828.828c-.662 0-.869-.373-.869-.828V42.59c0-.62-.248-1.076-.91-1.076a1.242 1.242 0 00-1.2 1.283v2.772c0 .455 0 .828-.869.828a.745.745 0 01-.827-.828v-2.979c0-.62-.248-1.076-.91-1.076a1.199 1.199 0 00-1.2 1.283v2.772c0 .455-.207.828-.87.828a.745.745 0 01-.827-.828l.041-4.551zM83.21 40.191a2.938 2.938 0 013.104 3.145 2.854 2.854 0 01-3.104 3.145 2.856 2.856 0 01-3.103-3.145 2.938 2.938 0 013.103-3.145zm0 5.09c.993 0 1.407-.91 1.407-1.945 0-1.035-.455-1.904-1.407-1.904-.951 0-1.448.828-1.448 1.904s.455 1.945 1.448 1.945zM87.389 38.784a.745.745 0 01.828-.827.745.745 0 01.827.827v2.276a1.862 1.862 0 011.655-.869c1.738 0 2.566 1.531 2.566 3.103 0 1.573-1.242 3.187-2.607 3.187a1.78 1.78 0 01-1.78-1.035v.248c0 .538-.248.787-.744.787-.497 0-.745-.249-.745-.787v-6.91zm2.896 2.731c-.993 0-1.324.993-1.324 1.862 0 .87.373 1.82 1.324 1.82.952 0 1.366-.868 1.366-1.82 0-.951-.29-1.862-1.366-1.862zM95.334 37.915a.87.87 0 01.87.87.91.91 0 01-.87.868.868.868 0 010-1.738zm-.869 3.104a.785.785 0 01.87-.828.745.745 0 01.827.828v4.634a.746.746 0 01-.828.828c-.662 0-.869-.373-.869-.828V41.02zM97.65 38.784a.785.785 0 01.87-.827.745.745 0 01.827.827v6.869a.745.745 0 01-.827.828.786.786 0 01-.87-.828v-6.869zM101.706 37.915a.87.87 0 01.869.87.91.91 0 01-.869.868.869.869 0 010-1.738zm-.869 3.104a.795.795 0 01.243-.615.783.783 0 01.626-.213.745.745 0 01.828.828v4.634a.706.706 0 01-.828.828c-.662 0-.869-.373-.869-.828V41.02zM109.526 44.743a5.957 5.957 0 000 1.117.66.66 0 01-.744.62.91.91 0 01-.993-.951 2.946 2.946 0 01-2.318.952 1.734 1.734 0 01-1.706-1.015 1.73 1.73 0 01-.156-.682c0-1.365 1.035-1.78 2.318-1.903h1.034c.414 0 .703 0 .703-.62 0-.622-.455-.704-1.034-.704-1.241 0-1.283.951-1.945.951a.704.704 0 01-.703-.662c0-.662.951-1.53 2.648-1.53 1.696 0 2.731.537 2.731 1.737l.165 2.69zm-1.696-1.2a1.448 1.448 0 01-.704.248h-.62c-.704 0-1.076.331-1.076.828 0 .496.372.703.952.703a1.327 1.327 0 001.301-.702 1.34 1.34 0 00.147-.498v-.58zM111.058 40.977a.736.736 0 01.203-.553.75.75 0 01.542-.233.747.747 0 01.738.478.735.735 0 01.048.308v.662c.207-.703.579-1.448 1.407-1.448a.87.87 0 01.91.828.747.747 0 01-.827.827h-.29c-.662 0-1.035.455-1.035 1.862v1.945c0 .455 0 .828-.868.828a.745.745 0 01-.828-.828v-4.676zM116.561 37.915a.87.87 0 110 1.74.87.87 0 010-1.74zm-.827 3.104a.733.733 0 01.036-.332.737.737 0 01.791-.496.789.789 0 01.816.493c.042.107.06.22.053.335v4.634c0 .455 0 .828-.869.828a.74.74 0 01-.791-.496.733.733 0 01-.036-.332V41.02zM124.381 44.743a5.792 5.792 0 000 1.117.66.66 0 01-.476.6.66.66 0 01-.269.02.869.869 0 01-.952-.951 3.012 3.012 0 01-2.317.952 1.78 1.78 0 01-1.903-1.697c0-1.365 1.076-1.78 2.358-1.903h.993c.414 0 .745 0 .745-.62 0-.622-.496-.704-1.076-.704-1.241 0-1.241.951-1.944.951a.705.705 0 01-.704-.662c0-.662.952-1.53 2.69-1.53s2.689.537 2.689 1.737l.166 2.69zm-1.655-1.2a1.78 1.78 0 01-.745.248h-.579c-.704 0-1.076.331-1.076.828 0 .496.331.703.91.703a1.365 1.365 0 001.49-1.2v-.58zM67.735 7.751c4.386 0 8.772 1.738 8.772 4.386a2.4 2.4 0 01-2.4 2.524c-2.234 0-2.317-2.648-5.917-2.648-2.028 0-3.31.538-3.31 1.78 0 1.24 1.282 1.655 3.062 2.027l2.4.58c3.269.744 7.158 2.11 7.158 6.123 0 4.676-4.51 6.869-8.855 6.869-5.213 0-9.517-2.317-9.517-5.172a2.193 2.193 0 012.318-2.4c2.482 0 2.73 3.558 6.95 3.558 2.07 0 3.353-.91 3.353-2.11 0-1.2-1.242-1.697-3.31-2.193l-3.394-.828c-3.351-.827-5.917-2.193-5.917-6.082.083-4.676 4.635-6.414 8.607-6.414zM86.024 19.668a4.964 4.964 0 005.337 5.214c4.138 0 4.138-2.814 6.62-2.814a2.358 2.358 0 012.401 2.234c0 3.476-5.586 5.09-9.02 5.09a10.052 10.052 0 01-11.048-10.427A10.263 10.263 0 0191.154 7.75a9.682 9.682 0 0110.386 9.434c0 1.945-.579 2.483-2.524 2.483H86.024zm10.096-3.31a4.883 4.883 0 00-4.841-4.552 5.131 5.131 0 00-5.255 4.552H96.12zM105.223 10.648c0-1.738.828-2.897 2.607-2.897 1.779 0 2.607 1.159 2.607 2.897v.745a8.276 8.276 0 016.951-3.642 6.741 6.741 0 016.956 4.611 6.74 6.74 0 01.285 2.961v11.172a2.559 2.559 0 01-.714 2.151 2.569 2.569 0 01-2.141.746 2.608 2.608 0 01-2.896-2.897V16.482c0-2.359-1.118-4.138-3.6-4.138a4.427 4.427 0 00-4.386 4.51v9.476a2.573 2.573 0 01-.715 2.151 2.559 2.559 0 01-2.14.745 2.604 2.604 0 01-2.771-1.735 2.616 2.616 0 01-.126-1.161l.083-15.682zM148.752 26.66c0 1.78-.827 2.732-2.565 2.732a2.4 2.4 0 01-2.607-2.731v-.91a6.044 6.044 0 01-6.083 3.64c-4.799 0-8.978-3.516-8.978-10.964 0-5.504 2.772-10.676 8.854-10.676a6.372 6.372 0 015.669 2.938V2.91a2.61 2.61 0 012.855-2.896 2.605 2.605 0 012.855 2.896v23.75zm-10.013-1.778c3.351 0 4.593-2.98 4.593-6.248 0-3.27-1.117-6.414-4.593-6.373-3.476.042-4.552 3.683-4.552 6.373 0 3.268 1.49 6.165 4.552 6.248zM172.421 23.31c.069 1.298.263 2.586.579 3.847a2.39 2.39 0 01-.818 1.65 2.409 2.409 0 01-1.747.585 3.103 3.103 0 01-3.393-3.352 9.894 9.894 0 01-7.903 3.352 6.166 6.166 0 01-6.455-5.876c0-4.758 3.599-6.124 8.027-6.62l3.476-.373c1.406 0 2.482-.496 2.482-2.151 0-1.655-1.696-2.359-3.6-2.359-4.137 0-4.386 3.145-6.661 3.145a2.315 2.315 0 01-2.442-2.193c0-2.276 3.228-5.214 9.145-5.214s9.31 1.78 9.31 5.917v9.641zm-5.752-4.139a4.92 4.92 0 01-2.482.91l-2.069.332c-2.4.33-3.724 1.117-3.724 2.813 0 1.697 1.241 2.359 3.186 2.359a4.59 4.59 0 004.567-2.4c.288-.539.466-1.13.522-1.738v-2.276z" fill="#523695"/></svg>